TITLE:   cdl_example01 
FCM: NON-DROP FRAME
000001  B_0031C010_241010_133208_h1C2T   V     C        13:30:27:13 13:30:29:01 02:13:08:12 02:13:10:00 
*FROM CLIP NAME:  117C-3-B 
*LOC: 02:13:08:12 Green   Sc 117 INTERCUT 
*ASC_SOP (0.9405 0.9439 0.9424)(-0.0500 -0.0276 -0.0144)(0.8888 0.9138 0.9896) 
*ASC_SAT 0.9640
000002  B_0031C009_241010_132827_h1C2T   V     C        13:26:36:14 13:26:38:03 02:13:10:00 02:13:11:13 
*VFX  117_GUD_0030 ADD NORWAY LANDSCAPE 
*FROM CLIP NAME:  117C-2-B 
*LOC: 02:13:10:04 White   VFX  117_GUD_0030 add Norway landscape 
*ASC_SOP (0.9282 0.9312 0.9296)(-0.0362 -0.0138 -0.0006)(0.8888 0.9138 0.9896) 
*ASC_SAT 0.9640
000003  A_0038C002_241010_114016_h1EHP   V     C        12:41:35:05 12:41:41:11 02:13:12:13 02:13:18:19 
*VFX  117_GUD_0060 ADD NORWAY LANDSCAPE 
*FROM CLIP NAME:  117A-2-A 
*LOC: 02:13:17:01 White   VFX  117_GUD_0060 add Norway landscape 
*ASC_SOP (0.8315 0.8307 0.8290)(0.0301 0.0416 0.0435)(0.9351 0.9413 0.9816) 
*ASC_SAT 0.9640
000004  A_0038C016_241010_130056_h1EHP   V     C        14:02:14:03 14:02:15:03 02:13:18:19 02:13:19:19 
*VFX  117_GUD_0070 ADD NORWAY LANDSCAPE 
*FROM CLIP NAME:  117F-2 
*LOC: 02:13:19:02 White   VFX  117_GUD_0070 add Norway landscape 
*ASC_SOP (0.9129 0.9045 0.8950)(0.0197 0.0394 0.0495)(0.9274 0.9472 0.9931) 
*ASC_SAT 0.9640
000005  A_0038C006_241010_120437_h1EHP   V     C        13:06:10:07 13:06:11:08 02:13:19:19 02:13:20:20 
*VFX  117_GUD_0080 ADD NORWAY LANDSCAPE 
*FROM CLIP NAME:  117B-4-A 
*LOC: 02:13:20:07 White   VFX  117_GUD_0080 add Norway landscape 
*ASC_SOP (0.8650 0.8604 0.8535)(0.0160 0.0319 0.0397)(0.9235 0.9485 0.9937) 
*ASC_SAT 0.9640
000006  B_0031C005_241010_130536_h1C2T   V     C        13:03:45:20 13:03:47:14 02:13:20:20 02:13:22:14 
*VFX  117_GUD_0090 ADD NORWAY LANDSCAPE 
*FROM CLIP NAME:  117B-3-B 
*LOC: 02:13:21:07 White   VFX  117_GUD_0090 add Norway landscape 
*ASC_SOP (0.7644 0.7755 0.7640)(0.0194 0.0392 0.0557)(0.8384 0.8687 0.9321) 
*ASC_SAT 0.9640
000007  A_0038C016_241010_130056_h1EHP   V     C        14:02:21:15 14:02:24:12 02:13:22:14 02:13:25:11 
*VFX  117_GUD_0100 ADD NORWAY LANDSCAPE 
*FROM CLIP NAME:  117F-2 
*LOC: 02:13:24:07 White   VFX  117_GUD_0100 add Norway landscape 
*ASC_SOP (0.9129 0.9045 0.8950)(0.0197 0.0394 0.0495)(0.9274 0.9472 0.9931) 
*ASC_SAT 0.9640
000008  A_0038C006_241010_120437_h1EHP   V     C        13:06:16:18 13:06:23:09 02:13:25:11 02:13:32:02 
*VFX  117_GUD_0110 ADD NORWAY LANDSCAPE 
*FROM CLIP NAME:  117B-4-A 
*LOC: 02:13:28:06 White   VFX  117_GUD_0110 add Norway landscape 
*ASC_SOP (0.8650 0.8604 0.8535)(0.0160 0.0319 0.0397)(0.9235 0.9485 0.9937) 
*ASC_SAT 0.9640
000009  A_0038C011_241010_123111_h1EHP   V     C        13:32:49:04 13:32:51:01 02:13:32:02 02:13:33:23 
*FROM CLIP NAME:  117C-4 
*ASC_SOP (0.8656 0.8610 0.8542)(0.0153 0.0312 0.0389)(0.9318 0.9425 0.9884) 
*ASC_SAT 0.9640
000010  A_0038C006_241010_120437_h1EHP   V     C        13:06:25:06 13:06:27:14 02:13:33:23 02:13:36:07 
*VFX  117_GUD_0120 ADD NORWAY LANDSCAPE 
*FROM CLIP NAME:  117B-4-A 
*LOC: 02:13:35:01 White   VFX  117_GUD_0120 add Norway landscape 
*ASC_SOP (0.8650 0.8604 0.8535)(0.0160 0.0319 0.0397)(0.9235 0.9485 0.9937) 
*ASC_SAT 0.9640
000011  A_0038C011_241010_123111_h1EHP   V     C        13:32:53:16 13:32:54:23 02:13:36:07 02:13:37:14 
*FROM CLIP NAME:  117C-4 
*ASC_SOP (0.8656 0.8610 0.8542)(0.0153 0.0312 0.0389)(0.9318 0.9425 0.9884) 
*ASC_SAT 0.9640
000012  A_0038C006_241010_120437_h1EHP   V     C        13:06:30:14 13:06:34:01 02:13:37:14 02:13:41:01 
*VFX  117_GUD_0130 ADD NORWAY LANDSCAPE 
*FROM CLIP NAME:  117B-4-A 
*LOC: 02:13:39:05 White   VFX  117_GUD_0130 add Norway landscape 
*ASC_SOP (0.8650 0.8604 0.8535)(0.0160 0.0319 0.0397)(0.9235 0.9485 0.9937) 
*ASC_SAT 0.9640
000013  A_0038C012_241010_124231_h1EHP   V     C        13:44:10:05 13:44:12:06 02:13:41:01 02:13:43:02 
*VFX  117_GUD_0140 ADD NORWAY LANDSCAPE 
*FROM CLIP NAME:  117D-1 
*LOC: 02:13:42:03 White   VFX  117_GUD_0140 add Norway landscape 
*ASC_SOP (0.8791 0.8754 0.8660)(-0.0000 0.0150 0.0256)(0.9310 0.9432 0.9893) 
*ASC_SAT 0.9640
000014  A_0038C014_241010_125128_h1EHP   V     C        13:52:56:16 13:53:01:13 02:13:43:02 02:13:47:23 
*VFX  117_GUD_0150 ADD NORWAY LANDSCAPE 
*FROM CLIP NAME:  117E-2 PU 
*LOC: 02:13:45:10 White   VFX  117_GUD_0150 add Norway landscape 
*ASC_SOP (0.9320 0.9203 0.9093)(-0.0262 -0.0022 0.0097)(0.9196 0.9569 1.0007) 
*ASC_SAT 0.9640
000015  D006C0011_241001_Q3J911          V     C        14:26:00:22 14:26:03:23 02:13:47:23 02:13:51:00 
*FROM CLIP NAME:  121B-4* 
*LOC: 02:13:47:23 Green   Sc 121 
*ASC_SOP (0.9688 0.9286 0.9044)(-0.0050 0.0335 0.0584)(1.0019 1.0499 1.0817) 
*ASC_SAT 0.8500
000016  D006C0013_241001_Q3J911          V     C        14:38:25:03 14:38:27:00 02:13:51:00 02:13:52:21 
*FROM CLIP NAME:  121C-2 
*ASC_SOP (0.9700 0.9296 0.9054)(-0.0053 0.0332 0.0581)(0.9871 1.0506 1.0894) 
*ASC_SAT 0.8500
000017  D006C0011_241001_Q3J911          V     C        14:26:10:22 14:26:13:15 02:13:52:21 02:13:55:14 
*FROM CLIP NAME:  121B-4* 
*ASC_SOP (0.9688 0.9286 0.9044)(-0.0050 0.0335 0.0584)(1.0019 1.0499 1.0817) 
*ASC_SAT 0.8500
000018  A_0038C027_241010_145134_h1EHP   V     C        15:54:02:03 15:54:13:04 02:13:55:14 02:14:06:15 
*VFX  117_GUD_0160 ADD NORWAY LANDSCAPE 
*FROM CLIP NAME:  120C-3 
*LOC: 02:13:55:14 Green   Sc 120 INTERCUT 
*LOC: 02:13:56:13 White   VFX  117_GUD_0160 add Norway landscape 
*ASC_SOP (0.9812 0.9783 1.0016)(-0.0737 -0.0335 -0.0141)(0.8337 0.8918 1.0014) 
*ASC_SAT 0.9640
000019  A_0044C012_241015_112339_h1EHP   V     C        12:24:45:15 12:24:55:14 02:14:07:15 02:14:17:14 
*VFX  124_SYF_0010 ADD NORWAY LANDSCAPE 
*FROM CLIP NAME:  124-3-A 
*LOC: 02:14:07:15 Green   Sc 124 
*LOC: 02:14:12:04 White   VFX  124_SYF_0010 add Norway landscape 
*ASC_SOP (0.8971 0.8843 0.8818)(0.0070 0.0211 0.0238)(0.9792 0.9850 1.0157) 
*ASC_SAT 1.0000
000020  A_0044C020_241015_115202_h1EHP   V     C        12:53:11:04 12:53:12:19 02:14:17:14 02:14:19:05 
*FROM CLIP NAME:  124B-5 
*ASC_SOP (0.9201 0.9118 0.9150)(-0.0137 0.0007 0.0036)(0.9530 0.9664 1.0033) 
*ASC_SAT 1.0000
000021  A_0044C013_241015_113513_h1EHP   V     C        12:36:33:02 12:36:36:13 02:14:19:05 02:14:22:16 
*VFX  124_SYF_0020 ADD NORWAY LANDSCAPE 
*FROM CLIP NAME:  124A-1-A 
*LOC: 02:14:20:23 White   VFX  124_SYF_0020 add Norway landscape 
*ASC_SOP (0.8897 0.8752 0.8668)(0.0033 0.0195 0.0290)(0.9671 0.9811 1.0153) 
*ASC_SAT 1.0000
000022  A_0044C020_241015_115202_h1EHP   V     C        12:53:18:02 12:53:20:19 02:14:22:16 02:14:25:09 
*FROM CLIP NAME:  124B-5 
*ASC_SOP (0.9201 0.9118 0.9150)(-0.0137 0.0007 0.0036)(0.9530 0.9664 1.0033) 
*ASC_SAT 1.0000
000023  A_0044C013_241015_113513_h1EHP   V     C        12:36:36:22 12:36:38:07 02:14:25:09 02:14:26:18 
*VFX  124_SYF_0025 ADD NORWAY LANDSCAPE 
*FROM CLIP NAME:  124A-1-A 
*LOC: 02:14:25:23 White   VFX  124_SYF_0025 add Norway landscape 
*ASC_SOP (0.8897 0.8752 0.8668)(0.0033 0.0195 0.0290)(0.9671 0.9811 1.0153) 
*ASC_SAT 1.0000
000024  A_0044C012_241015_112339_h1EHP   V     C        12:25:01:21 12:25:03:09 02:14:26:18 02:14:28:06 
*VFX  124_SYF_0030 ADD NORWAY LANDSCAPE 
*FROM CLIP NAME:  124-3-A 
*LOC: 02:14:27:09 White   VFX  124_SYF_0030 add Norway landscape 
*ASC_SOP (0.8971 0.8843 0.8818)(0.0070 0.0211 0.0238)(0.9792 0.9850 1.0157) 
*ASC_SAT 1.0000
000025  A_0044C013_241015_113513_h1EHP   V     C        12:36:39:11 12:36:41:13 02:14:28:06 02:14:30:08 
*VFX  124_SYF_0040 ADD NORWAY LANDSCAPE 
*FROM CLIP NAME:  124A-1-A 
*LOC: 02:14:28:22 White   VFX  124_SYF_0040 add Norway landscape 
*ASC_SOP (0.8897 0.8752 0.8668)(0.0033 0.0195 0.0290)(0.9671 0.9811 1.0153) 
*ASC_SAT 1.0000
000026  A_0044C020_241015_115202_h1EHP   V     C        12:53:23:11 12:53:25:13 02:14:30:08 02:14:32:10 
*VFX  124_SYF_0043 ADD NORWAY BG 
*FROM CLIP NAME:  124B-5 
*LOC: 02:14:31:13 White   VFX  124_SYF_0043 add Norway bg 
*ASC_SOP (0.9201 0.9118 0.9150)(-0.0137 0.0007 0.0036)(0.9530 0.9664 1.0033) 
*ASC_SAT 1.0000
000027  A_0044C013_241015_113513_h1EHP   V     C        12:36:41:18 12:36:43:05 02:14:32:10 02:14:33:21 
*VFX  124_SYF_0048 ADD NORWAY BG 
*FROM CLIP NAME:  124A-1-A 
*LOC: 02:14:33:11 White   VFX  124_SYF_0048 add Norway bg 
*ASC_SOP (0.8897 0.8752 0.8668)(0.0033 0.0195 0.0290)(0.9671 0.9811 1.0153) 
*ASC_SAT 1.0000
000028  A_0044C019_241015_115048_h1EHP   V     C        12:52:16:18 12:52:18:13 02:14:33:21 02:14:35:16 
*VFX  124_SYF_0050 ADD NORWAY LANDSCAPE 
*FROM CLIP NAME:  124B-4 
*LOC: 02:14:34:16 White   VFX  124_SYF_0050 add Norway landscape 
*ASC_SOP (0.9162 0.9080 0.9112)(-0.0095 0.0049 0.0078)(0.9530 0.9664 1.0033) 
*ASC_SAT 1.0000
000029  A_0044C014_241015_113829_h1EHP   V     C        12:39:54:17 12:39:57:03 02:14:35:16 02:14:38:02 
*VFX  124_SYF_0060 ADD NORWAY BG 
*FROM CLIP NAME:  124A-2-A 
*LOC: 02:14:36:16 White   VFX  124_SYF_0060 Add Norway bg 
*ASC_SOP (0.8898 0.8754 0.8669)(0.0032 0.0194 0.0288)(0.9671 0.9811 1.0153) 
*ASC_SAT 1.0000
000030  B_0037C009_241015_122652_h1C2T   V     C        12:25:10:01 12:25:11:05 02:14:38:02 02:14:39:06 
*VFX  124_SYF_0073 ADD NORWAY BG 
*FROM CLIP NAME:  124-3-B 
*LOC: 02:14:38:02 Green   Sc 125 
*LOC: 02:14:38:22 White   VFX  124_SYF_0073 Add Norway bg 
*ASC_SOP (0.9201 0.9118 0.9150)(-0.0137 0.0007 0.0036)(0.9530 0.9664 1.0033) 
*ASC_SAT 1.0000
000031  A_0045C002_241015_131216_h1EHP   V     C        14:13:16:23 14:13:18:23 02:14:39:06 02:14:41:06 
*VFX  124_SYF_0078 ADD NORWAY BG 
*FROM CLIP NAME:  124E-2 
*LOC: 02:14:40:01 White   VFX  124_SYF_0078 Add Norway bg 
*ASC_SOP (0.9201 0.9118 0.9150)(-0.0137 0.0007 0.0036)(0.9530 0.9664 1.0033) 
*ASC_SAT 1.0000
000032  B_0037C009_241015_122652_h1C2T   V     C        12:25:11:13 12:25:12:06 02:14:41:06 02:14:41:23 
*VFX  124_SYF_0080 ADD NORWAY LANDSCAPE 
*FROM CLIP NAME:  124-3-B 
*LOC: 02:14:41:09 White   VFX  124_SYF_0080 add Norway landscape 
*ASC_SOP (0.9201 0.9118 0.9150)(-0.0137 0.0007 0.0036)(0.9530 0.9664 1.0033) 
*ASC_SAT 1.0000
000033  D007C0005_241008_Q3J912          V     C        13:19:00:22 13:19:02:15 02:14:41:23 02:14:43:16 
*VFX  124_SYF_0100 ADD NORWAY LANDSCAPE 
*FROM CLIP NAME:  124C-4 
*LOC: 02:14:42:08 White   VFX  124_SYF_0100 add Norway landscape 
*ASC_SOP (0.8789 0.8685 0.8723)(0.0094 0.0316 0.0328)(0.9300 0.9406 1.0012) 
*ASC_SAT 1.0000
000034  A_0045C002_241015_131216_h1EHP   V     C        14:13:20:03 14:13:20:16 02:14:43:16 02:14:44:05 
*VFX  124_SYF_0090 ADD NORWAY LANDSCAPE 
*FROM CLIP NAME:  124E-2 
*LOC: 02:14:43:21 White   VFX  124_SYF_0090 add Norway landscape 
*ASC_SOP (0.9201 0.9118 0.9150)(-0.0137 0.0007 0.0036)(0.9530 0.9664 1.0033) 
*ASC_SAT 1.0000
000035  D007C0007_241008_Q3J912          V     C        13:26:59:07 13:27:00:18 02:14:44:05 02:14:45:16 
*VFX  124_SYF_0110 ADD NORWAY LANDSCAPE 
*FROM CLIP NAME:  124D-2 
*LOC: 02:14:44:19 White   VFX  124_SYF_0110 add Norway landscape 
*ASC_SOP (0.9058 0.8914 0.8960)(-0.0006 0.0207 0.0219)(0.9087 0.9191 0.9783) 
*ASC_SAT 1.0000
000036  D007C0005_241008_Q3J912          V     C        13:19:04:09 13:19:07:01 02:14:45:16 02:14:48:08 
*VFX  124_SYF_0120 ADD NORWAY LANDSCAPE 
*FROM CLIP NAME:  124C-4 
*LOC: 02:14:47:22 White   VFX  124_SYF_0120 add Norway landscape 
*ASC_SOP (0.8789 0.8685 0.8723)(0.0094 0.0316 0.0328)(0.9300 0.9406 1.0012) 
*ASC_SAT 1.0000
000037  D007C0007_241008_Q3J912          V     C        13:27:03:08 13:27:04:10 02:14:48:08 02:14:49:10 
*VFX  124_SYF_0130 ADD NORWAY LANDSCAPE 
*FROM CLIP NAME:  124D-2 
*LOC: 02:14:48:19 White   VFX  124_SYF_0130 add Norway landscape 
*ASC_SOP (0.9058 0.8914 0.8960)(-0.0006 0.0207 0.0219)(0.9087 0.9191 0.9783) 
*ASC_SAT 1.0000
000038  D007C0003_241008_Q3J912          V     C        13:15:29:20 13:15:30:23 02:14:49:10 02:14:50:13 
*VFX  124_SYF_0140 ADD NORWAY LANDSCAPE 
*FROM CLIP NAME:  124C-2 
*LOC: 02:14:49:15 White   VFX  124_SYF_0140 add Norway landscape 
*ASC_SOP (0.8711 0.8610 0.8647)(0.0125 0.0345 0.0357)(0.9300 0.9406 1.0012) 
*ASC_SAT 1.0000
000039  A_0045C009_241015_135209_h1EHP   V     C        14:53:13:14 14:53:15:09 02:14:50:13 02:14:52:08 
*VFX  124_SYF_0150 ADD NORWAY LANDSCAPE 
*FROM CLIP NAME:  125A-3* 
*LOC: 02:14:50:13 Green   Sc 126 
*LOC: 02:14:50:14 White   VFX  124_SYF_0150 add Norway landscape 
*ASC_SOP (0.9541 0.9282 0.9124)(-0.0197 0.0032 0.0111)(0.9317 0.9350 0.9640) 
*ASC_SAT 1.0000