TITLE:   cdl_frmc_example02
FCM: NON-DROP FRAME
000001  A_0095C008_250116_182427_h1DQ9   V     C        17:31:54:08 17:31:58:00 01:00:00:00 01:00:03:16 
*FROM CLIP NAME:  000_trl_0010_bg01_v01 
*FRMC start: 1001    FRMC end: 1088    FRMC duration:88 
*ASC_SOP (1.0035 1.0 1.0)(0.0 0.0 0.0)(1.0 1.0 1.0) 
*ASC_SAT 1.0
000002  V204_01051811_C010               V     C        13:07:43:14 13:07:49:06 01:00:03:16 01:00:09:08 
*FROM CLIP NAME:  000_trl_0010_el01_v01 
*FRMC start: 1001    FRMC end: 1136    FRMC duration:136 
*ASC_SOP (1.0 1.0 1.0)(0.0 0.0 0.0)(1.0 1.0 1.0) 
*ASC_SAT 1.0
000003  A_0092C017_250115_182121_h1DQ9   V     C        17:27:07:01 17:27:12:09 01:00:09:08 01:00:14:16 
*FROM CLIP NAME:  027_mtr_1770_bg01_v01 
*FRMC start: 1001    FRMC end: 1128    FRMC duration:128 
*ASC_SOP (1.0 1.0 1.0)(0.0 -0.004 0.0)(1.0 1.0 1.0) 
*ASC_SAT 1.0
000004  A_0092C018_250115_182308_h1DQ9   V     C        17:28:39:03 17:28:51:00 01:00:14:16 01:00:26:13 
*FROM CLIP NAME:  027_mtr_1770_rf01_v01 
*FRMC start: 1001    FRMC end: 1285    FRMC duration:285 
*ASC_SOP (1.0 1.0 1.0)(0.0 -0.004 0.0)(1.0 1.0 1.0) 
*ASC_SAT 1.0
000005  C_0122C010_250219_123205_h1E5N   V     C        11:34:58:01 11:35:01:07 01:00:26:13 01:00:29:19 
*FROM CLIP NAME:  084_ebk_2120_bg01_v01 
*FRMC start: 1001    FRMC end: 1078    FRMC duration:78 
*ASC_SOP (1.0 1.0 1.0)(0.0 0.0 0.0)(1.0 1.0 1.0) 
*ASC_SAT 1.0
000006  C_0122C011_250219_123354_h1E5N   V     C        11:36:19:22 11:36:40:04 01:00:29:19 01:00:50:01 
*FROM CLIP NAME:  084_ebk_2120_rf01_v01 
*FRMC start: 1001    FRMC end: 1486    FRMC duration:486 
*ASC_SOP (1.0 1.0 1.0)(0.0 0.0 0.0)(1.0 1.0 1.0) 
*ASC_SAT 1.0
000007  B_0124C002_250219_045355_h1CUT   V     C        12:00:32:21 12:00:36:01 01:00:50:01 01:00:53:05 
*FROM CLIP NAME:  084_ebk_2140_bg01_v01 
*FRMC start: 1001    FRMC end: 1076    FRMC duration:76 
*ASC_SOP (1.0 1.0 1.0)(0.0 0.0 0.0)(1.0 1.0 1.0) 
*ASC_SAT 1.0
000008  C_0126C013_250221_121324_h1E5N   V     C        11:16:03:18 11:16:09:11 01:00:53:05 01:00:58:22 
*FROM CLIP NAME:  084_ebk_2280_bg01_v01 
*FRMC start: 1001    FRMC end: 1137    FRMC duration:137 
*ASC_SOP (1.0 1.0 0.999)(-0.0078 -0.0078 -0.0098)(1.0 1.0 1.0) 
*ASC_SAT 1.0
000009  D_0079C004_250223_110040_h1DZT   V     C        11:04:05:08 11:04:08:08 01:00:58:22 01:01:01:22 
*FROM CLIP NAME:  086_ebk_4160_bg01_v01 
*FRMC start: 1001    FRMC end: 1072    FRMC duration:72 
*ASC_SOP (1.0031 1.003 1.0025)(-0.0116 -0.0191 -0.0266)(1.0 1.0 1.0) 
*ASC_SAT 1.0
000010  D_0079C005_250223_110303_h1DZT   V     C        11:06:01:07 11:06:14:12 01:01:01:22 01:01:15:03 
*FROM CLIP NAME:  086_ebk_4160_rf01_v01 
*FRMC start: 1001    FRMC end: 1317    FRMC duration:317 
*ASC_SOP (1.0 1.0 1.0)(0.0 0.0 0.0)(1.0 1.0 1.0) 
*ASC_SAT 1.0
000011  W_0005C003_250223_105431_h1EPT   V     C        09:59:09:05 09:59:11:19 01:01:15:03 01:01:17:17 
*FROM CLIP NAME:  086_ebk_4180_bg01_v01 
*FRMC start: 1001    FRMC end: 1062    FRMC duration:62 
*ASC_SOP (1.0198 1.0198 1.0193)(-0.0019 -0.0082 -0.0174)(1.0 1.0 1.0) 
*ASC_SAT 1.0
000012  W_0005C004_250223_110023_h1EPT   V     C        10:03:33:16 10:03:41:05 01:01:17:17 01:01:25:06 
*FROM CLIP NAME:  086_ebk_4180_rf01_v01 
*FRMC start: 1001    FRMC end: 1181    FRMC duration:181 
*ASC_SOP (1.0 1.0 1.0)(0.0 0.0 0.0)(1.0 1.0 1.0) 
*ASC_SAT 1.0
000013  D_0079C001_250223_095442_h1DZT   V     C        09:59:09:13 09:59:12:23 01:01:25:06 01:01:28:16 
*FROM CLIP NAME:  086_ebk_4200_bg01_v01 
*FRMC start: 1001    FRMC end: 1082    FRMC duration:82 
*ASC_SOP (1.0031 1.003 1.0025)(0.0067 -0.0008 -0.0083)(1.0 1.0 1.0) 
*ASC_SAT 1.0
000014  D_0079C002_250223_100041_h1DZT   V     C        10:03:42:19 10:03:51:04 01:01:28:16 01:01:37:01 
*FROM CLIP NAME:  086_ebk_4200_rf01_v01 
*FRMC start: 1001    FRMC end: 1201    FRMC duration:201 
*ASC_SOP (1.0 1.0 1.0)(0.0 0.0 0.0)(1.0 1.0 1.0) 
*ASC_SAT 1.0
000015  A_0095C006_250116_181426_h1DQ9   V     C        17:20:11:09 17:21:44:21 01:01:37:01 01:03:10:13 
*FROM CLIP NAME:  088_mcm_0200_bg01_v01 
*FRMC start: 1001    FRMC end: 3244    FRMC duration:2244 
*ASC_SOP (1.0035 1.0 1.0)(0.0 0.0 0.0)(1.0 1.0 1.0) 
*ASC_SAT 1.0
000016  V204_01051756_C008               V     C        12:54:36:09 12:54:43:14 01:03:10:13 01:03:17:18 
*FROM CLIP NAME:  088_mcm_0200_el02_v01 
*FRMC start: 1829    FRMC end: 2001    FRMC duration:173 
*ASC_SOP (1.0 1.0 1.0)(0.0 0.0 0.0)(1.0 1.0 1.0) 
*ASC_SAT 1.0
000017  V204_01051808_C009               V     C        13:03:57:17 13:04:08:00 01:03:17:18 01:03:28:01 
*FROM CLIP NAME:  088_mcm_0200_el03_v01 
*FRMC start: 2592    FRMC end: 2838    FRMC duration:247 
*ASC_SOP (1.0 1.0 1.0)(0.0 0.0 0.0)(1.0 1.0 1.0) 
*ASC_SAT 1.0
000018  V204_01051811_C010               V     C        13:07:57:07 13:08:04:12 01:03:28:01 01:03:35:06 
*FROM CLIP NAME:  088_mcm_0200_el04_v01 
*FRMC start: 3072    FRMC end: 3244    FRMC duration:173 
*ASC_SOP (1.0 1.0 1.0)(0.0 0.0 0.0)(1.0 1.0 1.0) 
*ASC_SAT 1.0
000019  A_0095C012_250116_184034_h1DQ9   V     C        17:46:03:10 17:46:11:09 01:03:35:06 01:03:43:05 
*FROM CLIP NAME:  088_mcm_0200_rf01_v01 
*FRMC start: 1001    FRMC end: 1191    FRMC duration:191 
*ASC_SOP (1.0035 1.0 1.0)(0.0 0.0 0.0)(1.0 1.0 1.0) 
*ASC_SAT 1.0
000020  A_0095C013_250116_184129_h1DQ9   V     C        17:47:00:10 17:47:21:07 01:03:43:05 01:04:04:02 
*FROM CLIP NAME:  088_mcm_0200_rf02_v01 
*FRMC start: 1001    FRMC end: 1501    FRMC duration:501 
*ASC_SOP (1.0035 1.0 1.0)(0.0 0.0 0.0)(1.0 1.0 1.0) 
*ASC_SAT 1.0
000021  A_0095C006_250116_181426_h1DQ9   V     C        17:21:43:22 17:21:58:07 01:04:04:02 01:04:18:11 
*FROM CLIP NAME:  088_mcm_0240_bg01_V01 
*FRMC start: 1001    FRMC end: 1345    FRMC duration:345 
*ASC_SOP (1.0035 1.0 1.0)(0.0 0.0 0.0)(1.0 1.0 1.0) 
*ASC_SAT 1.0
000022  A_0002C019_241030_174120_h1DQ9   V     C        16:43:24:02 16:43:27:09 01:04:18:11 01:04:21:18 
*FROM CLIP NAME:  fv025_prw_0160_bg01_v01 
*FRMC start: 1001    FRMC end: 1079    FRMC duration:79
000023  018_hdh_0040_lineup_v0003        V     C        00:00:42:09 00:00:48:16 01:04:21:18 01:04:28:01 
*FROM CLIP NAME:  fv025_prw_0160_tv01_v01 
*FRMC start: 1017    FRMC end: 1167    FRMC duration:151
000024  Z_0003C015_241120_031008_h1CIM   V     C        14:09:11:18 14:09:14:12 01:04:28:01 01:04:30:19 
*FROM CLIP NAME:  fv075_lgk_0500_bg01_v01 
*FRMC start: 1001    FRMC end: 1066    FRMC duration:66 
*ASC_SOP (1.005 0.9993 0.9917)(-0.005 0.0007 0.0083)(1.0 1.0 1.0) 
*ASC_SAT 1.0
000025  Z_0003C011_241120_022000_h1CIM   V     C        13:19:03:19 13:19:16:04 01:04:30:19 01:04:43:04 
*FROM CLIP NAME:  fv075_lgk_0500_rf01_v01 
*FRMC start: 1001    FRMC end: 1297    FRMC duration:297 
*ASC_SOP (1.005 0.9993 0.9917)(-0.005 0.0007 0.0083)(1.0 1.0 1.0) 
*ASC_SAT 1.0