TITLE: conform_edl_issue_02
FCM: NON-DROP FRAME

001  C_0019C005_241014_204338_h1F4X V     C        11:19:41:07 11:19:49:03 02:04:48:10 02:04:56:06  
* FROM CLIP NAME: 40E-4 MOS*

002  B_0075C004_241114_164247_h1C2T V     C        15:43:03:12 15:43:05:17 02:06:03:03 02:06:05:08  
* FROM CLIP NAME: 39B-4-B

003  A_0079C015_241112_160227_h1EHP V     C        16:06:21:10 16:06:23:03 02:08:14:07 02:08:16:00  
* FROM CLIP NAME: 46L-2

004  C_0047C005_241121_123629_h1F4X V     C        11:41:15:17 11:41:21:01 02:09:08:01 02:09:13:09  
* FROM CLIP NAME: 49-5-C

005  A_0003C002_240923_130856_h1EHP V     C        14:11:06:01 14:11:12:03 02:11:26:11 02:11:32:13  
* FROM CLIP NAME: 54-2-A

006  A_0090C003_241119_095341_h1EHP V     C        09:57:25:14 09:57:32:20 02:13:40:13 02:13:47:19  
* FROM CLIP NAME: 57B-3-A*

007  A_0090C008_241119_102624_h1EHP V     C        10:30:43:07 10:30:46:23 02:14:16:01 02:14:19:17  
* FROM CLIP NAME: 57D-2*

008  B_0079C003_241119_105658_h1C2T V     C        09:58:57:15 09:59:00:14 02:15:01:08 02:15:04:07  
* FROM CLIP NAME: 57B-3-B*

009  A_0005C011_240924_113730_h1EHP V     C        12:40:01:07 12:40:04:06 02:16:13:11 02:16:16:10  
* FROM CLIP NAME: 58C-3-A

010  A_0060C001_241030_133415_h1EHP V     C        13:35:38:11 13:35:41:17 02:18:29:17 02:18:32:23  
* FROM CLIP NAME: 61A-1

