TITLE: conform_edl_issue_03
FCM: NON-DROP FRAME

002  A_0113C007_250602_103141_h1D4P V     C        10:32:32:22 10:32:48:16 01:00:20:23 01:00:36:17  
* FROM CLIP NAME: AP002A-3*

003  A_0113C004_250602_101043_h1D4P V     C        10:11:34:01 10:11:48:01 01:00:36:17 01:00:50:17  
* FROM CLIP NAME: AP002-4*

004  A_0113C018_250602_122238_h1D4P V     C        12:24:03:12 12:24:04:17 01:01:15:17 01:01:16:22  
* FROM CLIP NAME: AP002E-3-A*

005  A_0113C018_250602_122238_h1D4P V     C        12:24:05:22 12:24:18:02 01:01:20:21 01:01:33:01  
* FROM CLIP NAME: AP002E-3-A*

006  A_0113C022_250602_125451_h1D4P V     C        12:55:43:09 12:55:55:03 01:01:33:01 01:01:44:19  
* FROM CLIP NAME: AP002F-4-A*

007  A_0113C024_250602_132048_h1D4P V     C        13:21:54:17 13:22:00:07 01:01:44:19 01:01:50:09  
* FROM CLIP NAME: AP002G-2-A

008  B_0098C009_250602_115121_h1EZ3 V     C        12:56:02:03 12:56:05:11 01:01:50:09 01:01:53:17  
* FROM CLIP NAME: AP002F-4-B*

009  A_0113C024_250602_132048_h1D4P V     C        13:21:41:20 13:21:46:01 01:01:53:17 01:01:57:22  
* FROM CLIP NAME: AP002G-2-A

010  A_0113C022_250602_125451_h1D4P V     C        12:56:08:09 12:56:12:23 01:01:57:22 01:02:02:12  
* FROM CLIP NAME: AP002F-4-A*

011  B_0099C004_250602_133201_h1EZ3 V     C        14:36:34:09 14:36:38:03 01:02:06:07 01:02:10:01  
* FROM CLIP NAME: AP002H-4-B*

012  A_0114C009_250602_161406_h1D4P V     C        16:15:15:09 16:15:17:16 01:02:10:01 01:02:12:08  
* FROM CLIP NAME: AP002M-1-A

013  A_0115C001_250602_172408_h1D4P V     C        17:25:55:01 17:25:59:17 01:02:20:15 01:02:25:07  
* FROM CLIP NAME: AP002Q-1-A

014  B_0099C019_250602_153856_h1EZ3 V     C        16:43:35:06 16:43:38:13 01:02:25:07 01:02:28:14  
* FROM CLIP NAME: AP002N-2

015  A_0115C002_250602_172803_h1D4P V     C        17:29:28:01 17:29:32:02 01:02:28:14 01:02:32:15  
* FROM CLIP NAME: AP002Q-2-A*

016  B_0099C019_250602_153856_h1EZ3 V     C        16:43:41:10 16:43:45:12 01:02:32:15 01:02:36:17  
* FROM CLIP NAME: AP002N-2

017  A_0115C001_250602_172408_h1D4P V     C        17:26:08:05 17:26:10:20 01:02:36:17 01:02:39:08  
* FROM CLIP NAME: AP002Q-1-A

018  B_0099C018_250602_153023_h1EZ3 V     C        16:35:28:00 16:35:30:10 01:02:39:08 01:02:41:18  
* FROM CLIP NAME: AP002N-1*

019  B_0100C001_250602_162041_h1EZ3 V     C        17:26:17:05 17:26:24:23 01:02:41:18 01:02:49:12  
* FROM CLIP NAME: AP002Q-1-B

020  A_0114C010_250602_162156_h1D4P V     C        16:24:28:03 16:24:33:20 01:02:49:12 01:02:55:05  
* FROM CLIP NAME: AP002M-2-A*

021  B_0099C007_250602_140229_h1EZ3 V     C        15:07:55:18 15:08:00:01 01:02:55:05 01:02:59:12  
* FROM CLIP NAME: AP002K-2-B

022  B_0099C018_250602_153023_h1EZ3 V     C        16:35:47:23 16:35:49:05 01:02:59:12 01:03:00:18  
* FROM CLIP NAME: AP002N-1*

023  B_0099C007_250602_140229_h1EZ3 V     C        15:08:01:17 15:08:12:19 01:03:00:18 01:03:11:20  
* FROM CLIP NAME: AP002K-2-B

024  B_0099C018_250602_153023_h1EZ3 V     C        16:36:10:00 16:36:11:10 01:03:11:20 01:03:13:06  
* FROM CLIP NAME: AP002N-1*

025  B_0099C007_250602_140229_h1EZ3 V     C        15:08:15:08 15:08:22:13 01:03:13:06 01:03:20:11  
* FROM CLIP NAME: AP002K-2-B

026  B_0099C018_250602_153023_h1EZ3 V     C        16:36:18:21 16:36:23:01 01:03:20:11 01:03:24:15  
* FROM CLIP NAME: AP002N-1*

027  B_0099C007_250602_140229_h1EZ3 V     C        15:08:33:21 15:08:37:23 01:03:30:14 01:03:34:16  
* FROM CLIP NAME: AP002K-2-B

028  B_0099C017_250602_151824_h1EZ3 V     C        16:25:21:01 16:25:29:04 01:03:34:16 01:03:42:19  
* FROM CLIP NAME: AP002M-2-B*

029  B_0099C007_250602_140229_h1EZ3 V     C        15:08:47:10 15:08:55:02 01:03:42:19 01:03:50:11  
* FROM CLIP NAME: AP002K-2-B

030  B_0099C017_250602_151824_h1EZ3 V     C        16:25:39:00 16:25:42:03 01:03:50:11 01:03:53:14  
* FROM CLIP NAME: AP002M-2-B*

031  B_0099C007_250602_140229_h1EZ3 V     C        15:08:58:10 15:09:03:04 01:03:53:14 01:03:58:08  
* FROM CLIP NAME: AP002K-2-B

032  B_0099C016_250602_151038_h1EZ3 V     C        16:17:20:21 16:17:23:10 01:03:58:08 01:04:00:21  
* FROM CLIP NAME: AP002M-1-B

033  B_0099C007_250602_140229_h1EZ3 V     C        15:09:05:09 15:09:16:04 01:04:00:21 01:04:11:16  
* FROM CLIP NAME: AP002K-2-B

034  B_0099C019_250602_153856_h1EZ3 V     C        16:45:46:08 16:45:52:18 01:04:11:16 01:04:18:02  
* FROM CLIP NAME: AP002N-2

035  B_0099C007_250602_140229_h1EZ3 V     C        15:09:24:21 15:09:27:22 01:04:18:02 01:04:21:03  
* FROM CLIP NAME: AP002K-2-B

036  B_0099C019_250602_153856_h1EZ3 V     C        16:45:55:19 16:45:58:02 01:04:21:03 01:04:23:10  
* FROM CLIP NAME: AP002N-2

037  B_0099C004_250602_133201_h1EZ3 V     C        14:38:53:22 14:38:58:19 01:04:23:10 01:04:28:07  
* FROM CLIP NAME: AP002H-4-B*

038  B_0099C015_250602_150046_h1EZ3 V     C        16:07:52:23 16:07:55:04 01:04:28:07 01:04:30:12  
* FROM CLIP NAME: AP002L-1-B

039  B_0099C007_250602_140229_h1EZ3 V     C        15:09:35:22 15:09:40:19 01:04:30:12 01:04:35:09  
* FROM CLIP NAME: AP002K-2-B

040  B_0099C015_250602_150046_h1EZ3 V     C        16:08:01:21 16:08:05:01 01:04:35:09 01:04:38:13  
* FROM CLIP NAME: AP002L-1-B

041  B_0099C007_250602_140229_h1EZ3 V     C        15:09:45:16 15:09:55:00 01:04:38:13 01:04:47:21  
* FROM CLIP NAME: AP002K-2-B

042  M018C0005_240925_1F4L13 V     C        18:44:20:12 18:44:23:18 01:04:50:16 01:04:53:22  
* FROM CLIP NAME: 13-1-SER-1-M MOS

043  A_0022C009_241003_141208_h1EHP V     C        15:13:54:11 15:13:56:04 01:12:22:02 01:12:23:19  
* FROM CLIP NAME: 26H-3-A*

